<svg xmlns="http://www.w3.org/2000/svg" viewBox="0 0 440 310" role="img" aria-label="TIBLOGICS">
  <defs>
    <linearGradient id="ng" x1="39" y1="0" x2="410" y2="0" gradientUnits="userSpaceOnUse">
      <stop offset="0%"   stop-color="#F4C01A"/>
      <stop offset="42%"  stop-color="#F47C20"/>
      <stop offset="100%" stop-color="#DC4C2E"/>
    </linearGradient>
  </defs>

  <!-- Connections -->
  <g stroke="url(#ng)" stroke-width="9" fill="none" stroke-linecap="round">
    <line x1="39"  y1="193" x2="120" y2="186"/>
    <line x1="120" y1="186" x2="184" y2="58"/>
    <line x1="120" y1="186" x2="259" y2="143"/>
    <line x1="120" y1="186" x2="244" y2="264"/>
    <line x1="184" y1="58"  x2="259" y2="143"/>
    <line x1="259" y1="143" x2="328" y2="40"/>
    <line x1="259" y1="143" x2="351" y2="218"/>
    <line x1="328" y1="40"  x2="351" y2="218"/>
    <line x1="351" y1="218" x2="392" y2="106"/>
    <line x1="351" y1="218" x2="392" y2="267"/>
    <line x1="392" y1="106" x2="403" y2="51"/>
  </g>

  <!-- Nodes -->
  <circle cx="39"  cy="193" r="9"  fill="url(#ng)"/>
  <circle cx="120" cy="186" r="30" fill="url(#ng)"/>
  <circle cx="184" cy="58"  r="13" fill="url(#ng)"/>
  <circle cx="244" cy="264" r="11" fill="url(#ng)"/>
  <circle cx="259" cy="143" r="19" fill="url(#ng)"/>
  <circle cx="328" cy="40"  r="10" fill="url(#ng)"/>
  <circle cx="351" cy="218" r="23" fill="url(#ng)"/>
  <circle cx="392" cy="106" r="9"  fill="url(#ng)"/>
  <circle cx="392" cy="267" r="8"  fill="url(#ng)"/>
  <circle cx="403" cy="51"  r="6"  fill="url(#ng)"/>
</svg>
